<svg xmlns="http://www.w3.org/2000/svg" viewBox="0 0 192 192" role="img" aria-label="정보처리기사 카드퀴즈 아이콘">
  <defs>
    <linearGradient id="surface" x1="0%" y1="0%" x2="100%" y2="100%">
      <stop offset="0%" stop-color="#f8fbff" />
      <stop offset="100%" stop-color="#dbeafe" />
    </linearGradient>
    <linearGradient id="surfaceBack" x1="0%" y1="0%" x2="100%" y2="100%">
      <stop offset="0%" stop-color="#eef2ff" />
      <stop offset="100%" stop-color="#bfdbfe" />
    </linearGradient>
  </defs>
  <rect width="192" height="192" rx="48" fill="#f5f5f7" />
  <rect x="58" y="40" width="88" height="112" rx="22" fill="#c7d2fe" transform="rotate(8 102 96)" />
  <rect x="40" y="32" width="96" height="120" rx="24" fill="url(#surface)" stroke="#93c5fd" stroke-width="4" />
  <rect x="58" y="50" width="52" height="10" rx="5" fill="#bfdbfe" />
  <rect x="58" y="68" width="38" height="10" rx="5" fill="#dbeafe" />
  <path d="M112 112c8.84 0 16-7.16 16-16V80c0-8.84-7.16-16-16-16H84c-8.84 0-16 7.16-16 16v16c0 8.84 7.16 16 16 16h18v14" fill="none" stroke="#2563eb" stroke-linecap="round" stroke-linejoin="round" stroke-width="10" />
  <circle cx="102" cy="136" r="6" fill="#2563eb" />
</svg>
